<svg version="1.1" id="Layer_1" xmlns="http://www.w3.org/2000/svg" xmlns:xlink="http://www.w3.org/1999/xlink" x="0px" y="0px"
	 width="100%" viewBox="0 0 1024 624" enable-background="new 0 0 1024 624" xml:space="preserve">
<path fill="#000000" opacity="1.000000" stroke="none" 
	d="
M377.476562,342.465057 
	C432.351227,344.647430 485.133728,355.863190 537.213501,371.010345 
	C569.013855,380.259369 600.898132,389.188538 633.527893,395.106567 
	C660.426025,399.985046 687.499512,403.506317 714.894897,402.565796 
	C739.520508,401.720337 763.727722,398.207733 785.718018,386.046722 
	C809.277771,373.017761 822.701111,352.908447 823.288818,325.921783 
	C823.715759,306.316681 813.864014,291.008179 797.182373,280.939880 
	C779.744690,270.415253 760.810852,268.496277 741.371826,274.684448 
	C721.625671,280.970398 710.375061,296.815582 710.256470,317.539001 
	C710.240479,320.332397 710.753967,323.177338 709.874207,325.916534 
	C707.582397,327.082489 706.382690,325.281555 705.041992,324.237122 
	C690.433350,312.856598 686.079712,292.378052 694.446167,273.986237 
	C701.773804,257.878265 714.803223,248.057968 730.703308,241.419327 
	C771.267334,224.482971 823.903076,237.032242 851.336487,270.668671 
	C868.011169,291.113556 873.675171,314.901093 870.598389,340.890106 
	C866.116455,378.748413 843.957336,403.819397 811.670166,421.166443 
	C789.964417,432.828369 766.346802,438.582703 742.022949,441.256470 
	C683.158936,447.726959 625.877930,438.556580 569.351196,422.916656 
	C529.748108,411.959259 490.757294,398.818085 450.574524,389.918762 
	C415.929291,382.245789 381.044373,376.281525 345.576965,374.164673 
	C300.916016,371.499115 256.365448,372.526428 211.941025,378.109406 
	C171.106949,383.241150 130.707520,390.531982 91.121376,401.964050 
	C90.327095,402.193420 89.525063,402.506256 88.658150,401.820343 
	C88.876595,399.763550 90.816124,399.572327 92.143890,398.906342 
	C141.051300,374.375031 192.702866,358.511627 246.618622,349.549133 
	C287.024750,342.832367 327.678802,340.878662 368.542114,341.860260 
	C371.367737,341.928131 374.187988,342.219604 377.476562,342.465057 
z"/>
<path fill="#000000" opacity="1.000000" stroke="none" 
	d="
M576.159790,498.033997 
	C540.034790,489.475739 505.624634,476.938721 471.337646,464.072571 
	C423.107483,445.974243 374.208557,430.273773 323.270416,421.678925 
	C301.273834,417.967468 279.151184,415.484375 256.862366,414.149994 
	C222.848953,412.113708 188.935242,413.512695 155.074753,416.470276 
	C132.714203,418.423370 110.400169,420.985687 88.168564,424.164062 
	C87.189377,424.304047 86.174484,424.501648 85.339622,423.668060 
	C85.486549,422.432495 86.496498,422.126678 87.425758,421.852051 
	C124.163765,410.993378 161.295975,401.899536 199.296555,396.611938 
	C225.880661,392.912903 252.601425,391.133942 279.415894,390.778961 
	C339.024109,389.989716 397.034424,399.989197 454.000183,416.925751 
	C484.963104,426.131378 515.383606,436.995056 546.080078,447.014679 
	C585.289612,459.813019 625.185913,469.077942 666.455078,471.912750 
	C702.571594,474.393585 738.312256,472.868469 773.334900,462.771088 
	C809.650391,452.301025 842.386719,435.632385 868.671448,407.762970 
	C881.444580,394.219818 892.107727,379.197388 900.610168,362.637207 
	C901.212463,361.464172 901.874817,360.318817 902.576843,359.203156 
	C902.700378,359.006805 903.160278,359.022064 903.746399,358.863403 
	C904.740356,362.213928 903.494385,365.420319 902.950989,368.515961 
	C895.236084,412.466156 871.663086,446.062805 835.254150,471.040192 
	C806.568237,490.719391 774.373535,501.404724 740.379150,507.344452 
	C712.658508,512.187988 684.730591,512.859619 656.765625,510.993378 
	C629.668640,509.185059 602.942444,504.621948 576.159790,498.033997 
z"/>
<path fill="#000000" opacity="1.000000" stroke="none" 
	d="
M634.759827,241.469513 
	C610.203125,239.171738 587.551453,217.518478 583.732056,193.061035 
	C578.428040,159.096710 601.096069,128.601181 635.144714,123.894989 
	C665.143494,119.748581 693.603882,140.469116 700.075378,171.167755 
	C707.826721,207.937744 678.234558,243.312164 640.638000,242.183548 
	C638.820923,242.128998 637.013489,241.749741 634.759827,241.469513 
z"/>
<path fill="#000000" opacity="1.000000" stroke="none" 
	d="
M378.807373,234.826019 
	C393.946960,219.486969 412.455841,214.043411 433.094055,214.451401 
	C437.236481,214.533279 441.421478,214.559082 445.477600,215.763550 
	C447.850677,216.468231 449.830261,217.439178 450.208374,220.220306 
	C452.410431,236.417389 452.484100,252.471664 445.899963,267.816864 
	C436.197052,290.430786 418.306519,302.023926 394.449738,305.355530 
	C388.044617,306.250031 381.679108,306.797333 374.297668,303.999512 
	C383.356415,296.849182 392.180023,290.737885 399.199982,282.536255 
	C406.190643,274.368866 411.967926,265.526642 416.007660,255.423584 
	C413.103149,258.829987 410.362457,262.393524 407.268768,265.618500 
	C376.436401,297.759277 339.330322,317.940063 295.193237,325.416199 
	C268.787018,329.889008 242.081421,332.219635 215.770630,337.248566 
	C202.178162,339.846527 188.885056,343.502441 175.913986,348.326477 
	C174.579224,348.822845 173.285034,349.698792 170.764236,348.474945 
	C177.175766,344.678375 182.908966,341.219269 189.089600,338.477356 
	C209.412125,329.461884 231.102188,325.973877 252.833618,322.698334 
	C279.335449,318.703735 305.858521,314.831085 330.926605,304.671112 
	C334.160156,303.360535 337.253754,301.703156 340.405701,300.192841 
	C351.538818,294.858337 358.249878,286.191864 360.661591,274.014404 
	C363.002411,262.195068 366.393341,250.721130 373.849274,240.913040 
	C375.360382,238.925293 376.991882,237.029083 378.807373,234.826019 
z"/>
<path fill="#000000" opacity="1.000000" stroke="none" 
	d="
M550.879517,527.224121 
	C560.851990,544.417114 562.816833,562.609009 560.141418,581.584839 
	C559.711609,584.633301 558.177185,586.095337 554.963562,586.536316 
	C521.873108,591.076965 490.722839,576.172913 479.818878,536.935303 
	C478.620026,532.621277 477.805389,528.180176 477.105896,523.751709 
	C475.489777,513.519592 469.293701,507.546661 459.748657,504.550842 
	C458.319916,504.102417 456.864624,503.739136 455.424774,503.325348 
	C453.141693,502.669250 450.399200,502.008636 451.350555,498.881226 
	C452.267456,495.866943 455.007690,496.593384 457.285095,497.202484 
	C481.776398,503.753204 500.659149,518.490784 516.343689,537.833313 
	C520.530212,542.996216 525.054810,547.894409 529.318665,553.153687 
	C526.634277,548.401917 524.123596,543.540771 521.217468,538.928711 
	C518.203674,534.145813 515.049194,529.409363 511.509552,525.012085 
	C507.969696,520.614563 504.056641,516.474609 499.976501,512.567017 
	C495.929138,508.690918 491.469574,505.245209 487.057526,501.497528 
	C504.135376,493.667206 536.125671,502.789276 550.879517,527.224121 
z"/>
<path fill="#000000" opacity="1.000000" stroke="none" 
	d="
M362.784454,526.367432 
	C349.446320,524.925598 338.056580,520.324768 328.747833,509.887573 
	C352.084778,506.647278 372.586395,496.860657 392.016479,484.369751 
	C382.850922,487.553009 373.737061,490.895905 364.508484,493.884613 
	C347.807434,499.293335 330.855682,503.204315 313.079865,501.321899 
	C306.912750,500.668823 300.974121,499.151184 295.308990,496.646057 
	C293.064697,495.653625 291.048462,494.220642 292.255310,491.308624 
	C293.539581,488.209839 295.911591,488.414642 298.471710,489.674072 
	C301.774719,491.298889 305.243652,492.365753 308.865906,493.083710 
	C317.387634,494.772858 324.715973,492.600891 330.776154,486.447906 
	C336.730225,480.402588 342.278656,473.938324 349.148132,468.857391 
	C372.352966,451.693939 396.817719,450.823669 421.813354,464.146057 
	C438.475616,473.026794 436.393158,471.042328 428.775238,486.239075 
	C418.261688,507.212250 401.043030,520.293701 378.114258,525.649109 
	C373.209717,526.794556 368.210419,526.683350 362.784454,526.367432 
z"/>
<path fill="#000000" opacity="1.000000" stroke="none" 
	d="
M590.075806,586.074219 
	C588.831177,582.338867 592.007507,583.090393 593.441895,582.578979 
	C604.724182,578.555969 616.079895,574.734558 626.483826,568.640869 
	C627.876770,567.824951 629.206482,566.901184 630.426270,565.715576 
	C615.266907,570.738892 600.540344,577.178528 583.542053,578.808716 
	C585.078796,570.817810 588.861267,564.976135 593.139771,559.552612 
	C609.176636,539.224243 631.888855,533.597534 657.677185,543.304382 
	C671.084839,548.351074 671.472351,549.241638 665.125061,561.917358 
	C656.443909,579.253845 643.389648,591.163330 623.772339,594.662964 
	C611.423401,596.865967 600.456787,593.190552 590.075806,586.074219 
z"/>
<path fill="#000000" opacity="1.000000" stroke="none" 
	d="
M662.648926,371.027039 
	C625.370911,373.421631 589.582764,367.213257 554.195557,357.951355 
	C533.282410,352.477783 512.404419,346.846741 491.897125,339.958679 
	C490.078491,339.347809 487.936615,339.228271 486.519836,337.245544 
	C488.795319,335.188049 491.567657,335.869232 494.083466,335.772827 
	C521.171143,334.734894 547.813232,338.514130 574.394714,343.143677 
	C604.019043,348.303070 633.362183,355.133209 663.298889,358.428833 
	C677.020691,359.939453 690.789490,361.048462 704.624451,359.882263 
	C706.248657,359.745361 707.894348,359.863678 709.654663,360.527924 
	C694.834534,367.059967 679.009705,369.163483 662.648926,371.027039 
z"/>
<path fill="#000000" opacity="1.000000" stroke="none" 
	d="
M216.282608,446.659302 
	C214.555893,442.159821 215.991623,439.951233 220.196030,438.484711 
	C236.400330,432.832581 252.555634,430.409729 268.601501,438.677765 
	C284.207184,446.718964 290.747192,460.485413 292.232391,477.254028 
	C292.304321,478.066071 292.130066,478.910858 291.984924,479.725159 
	C291.934601,480.007599 291.624817,480.243835 290.883972,481.240631 
	C277.454803,471.187195 263.594635,461.683441 246.748581,455.103241 
	C260.229736,464.426208 273.899567,471.538452 284.437225,482.885925 
	C285.320435,483.837006 286.457642,484.695648 286.273682,486.744049 
	C282.475372,489.170837 277.929260,489.987335 273.338654,490.301147 
	C247.479187,492.068878 227.135818,478.590302 218.650970,454.171265 
	C217.832230,451.815002 217.154053,449.409882 216.282608,446.659302 
z"/>
<path fill="#000000" opacity="1.000000" stroke="none" 
	d="
M139.284973,456.077332 
	C145.883865,453.314301 152.350937,452.143188 159.128906,452.682709 
	C172.472107,453.744843 183.984955,467.213470 181.727692,479.197693 
	C180.127991,479.888489 179.318222,478.572174 178.302094,477.819702 
	C177.407898,477.157623 176.556412,476.437836 175.040176,475.228241 
	C176.303085,478.073425 178.981277,478.901794 179.354507,481.303253 
	C166.942139,489.670929 147.421631,484.852997 138.517212,471.305969 
	C137.423141,469.641510 136.428223,467.901642 135.512497,466.131927 
	C132.177277,459.686523 132.401855,459.085205 139.284973,456.077332 
z"/>
<path fill="#000000" opacity="1.000000" stroke="none" 
	d="
M652.899902,56.290760 
	C652.715637,68.027748 652.539124,79.325294 652.316284,90.621925 
	C652.192749,96.885170 648.597839,100.437355 642.348999,100.577019 
	C635.955566,100.719910 631.751709,96.988129 631.687805,90.729668 
	C631.569031,79.094460 631.606323,67.457138 631.651001,55.820980 
	C631.679016,48.527996 635.350037,44.055054 641.404663,43.724159 
	C647.639160,43.383438 651.612488,47.109993 652.738586,54.363102 
	C652.814941,54.854939 652.839539,55.354801 652.899902,56.290760 
z"/>
<path fill="#000000" opacity="1.000000" stroke="none" 
	d="
M579.081909,78.944237 
	C584.734253,86.165085 590.195801,93.085037 595.619873,100.034241 
	C600.132385,105.815491 599.864136,111.578209 594.957336,115.457726 
	C590.085876,119.309311 583.975525,118.510941 579.580078,113.111526 
	C572.545105,104.469803 565.608459,95.744202 558.803894,86.920128 
	C554.347107,81.140518 554.725281,75.227257 559.417114,71.396873 
	C564.375366,67.349014 570.354553,68.317886 575.137024,73.977585 
	C576.424805,75.501656 577.631104,77.094650 579.081909,78.944237 
z"/>
<path fill="#000000" opacity="1.000000" stroke="none" 
	d="
M725.694641,71.210838 
	C730.342163,77.839630 730.276794,81.339226 725.511963,87.167450 
	C718.460205,95.792885 711.366211,104.384071 704.255310,112.960884 
	C700.036255,118.049667 694.141113,118.884071 689.337524,115.153442 
	C684.600037,111.474129 684.143616,105.560638 688.400330,100.177238 
	C695.414612,91.306648 702.485657,82.479027 709.655518,73.733932 
	C714.376648,67.975487 718.856506,67.285927 725.694641,71.210838 
z"/>
<path fill="#000000" opacity="1.000000" stroke="none" 
	d="
M735.519653,158.743469 
	C726.030457,161.146957 720.940796,159.291977 719.105225,153.040985 
	C717.336365,147.017395 720.971863,142.648087 730.047974,139.912186 
	C740.555664,136.744736 751.018127,133.412109 761.593994,130.490891 
	C768.018433,128.716385 773.404724,132.626816 774.192932,139.037048 
	C774.819031,144.128250 772.003479,148.293945 766.149353,150.046295 
	C756.115356,153.049820 745.996094,155.768494 735.519653,158.743469 
z"/>
<path fill="#000000" opacity="1.000000" stroke="none" 
	d="
M520.609131,150.562164 
	C518.352417,149.786911 516.413696,149.267609 514.600952,148.464218 
	C509.943451,146.400177 507.886353,142.410690 508.820801,137.561264 
	C509.711609,132.938385 513.459717,129.777100 518.375732,129.722031 
	C520.004517,129.703781 521.705566,129.931122 523.259216,130.414017 
	C534.190979,133.811676 545.115662,137.236008 555.995850,140.794556 
	C562.500427,142.922012 565.026184,147.500244 563.242188,153.366074 
	C561.601624,158.760437 556.675232,161.338593 550.526062,159.582321 
	C540.638672,156.758362 530.827759,153.667053 520.609131,150.562164 
z"/>
<path fill="#000000" opacity="1.000000" stroke="none" 
	d="
M551.518127,212.825729 
	C542.037231,214.848557 532.947632,216.748291 523.859741,218.656189 
	C523.210876,218.792404 522.581543,219.024475 521.931335,219.151382 
	C514.221985,220.656082 509.215851,218.331009 507.883911,212.639938 
	C506.423553,206.400192 509.515381,202.283096 517.639832,200.417984 
	C527.818787,198.081192 538.045105,195.927002 548.302185,193.961182 
	C556.174133,192.452499 561.412354,196.491821 561.281250,203.539261 
	C561.188721,208.513336 558.575439,211.069214 551.518127,212.825729 
z"/>
<path fill="#000000" opacity="1.000000" stroke="none" 
	d="
M571.868652,274.836487 
	C569.687561,277.590240 567.835876,280.160950 565.742188,282.516632 
	C562.296265,286.393768 557.733887,286.975647 553.668640,284.261902 
	C549.653748,281.581818 548.201721,276.284912 551.034058,271.952698 
	C554.662170,266.403229 558.872437,261.231689 562.881042,255.934540 
	C565.688416,252.224777 568.522034,248.532043 571.444275,244.912720 
	C575.915466,239.374924 581.031982,238.345016 585.671692,241.931915 
	C590.274292,245.490112 590.501343,250.594040 586.112244,256.420013 
	C581.514282,262.523132 576.769836,268.515839 571.868652,274.836487 
z"/>
<path fill="#000000" opacity="1.000000" stroke="none" 
	d="
M510.834290,274.023224 
	C512.320374,273.383484 513.487122,272.879852 515.823669,271.871307 
	C511.479431,272.030914 508.852661,274.899048 505.599670,273.375427 
	C506.180817,264.491516 517.100830,254.248840 527.182495,253.807938 
	C540.853760,253.210037 544.008057,253.627731 539.833679,269.562805 
	C537.824951,277.230713 533.219849,283.067322 525.113770,285.024200 
	C516.990967,286.985107 508.389984,284.079041 503.299896,277.925293 
	C505.197235,275.710388 507.990723,275.169464 510.834290,274.023224 
z"/>
<path fill="#000000" opacity="1.000000" stroke="none" 
	d="
M767.866028,201.916306 
	C772.477905,205.925888 773.392334,209.576736 771.164246,213.922806 
	C768.864136,218.409317 764.956299,219.184860 760.556152,218.171509 
	C750.214478,215.789780 739.892700,213.314545 729.601379,210.724091 
	C724.409851,209.417313 721.414368,205.394791 722.048523,201.125153 
	C722.785645,196.161621 726.393677,193.011505 732.125671,193.783112 
	C744.127258,195.398682 755.881042,198.357391 767.866028,201.916306 
z"/>
<path fill="#000000" opacity="1.000000" stroke="none" 
	d="
M302.439392,277.157288 
	C309.600189,273.812805 316.679382,274.105835 323.825714,275.421814 
	C325.715576,275.769836 327.339233,276.383972 327.437958,278.798187 
	C327.781281,287.196838 324.988098,294.258698 318.217285,299.339600 
	C311.713837,304.219910 304.370514,304.427582 296.817322,302.210236 
	C296.416412,302.092560 296.126801,301.595825 295.850403,301.336548 
	C295.833099,298.675751 298.882782,298.891235 299.772156,296.619354 
	C296.242432,297.788055 293.355865,300.057709 289.797394,299.921265 
	C287.208099,292.540802 292.607361,282.726410 302.439392,277.157288 
z"/>
<path fill="#000000" opacity="1.000000" stroke="none" 
	d="
M255.313812,317.600983 
	C248.014465,321.204987 241.267410,319.980408 234.553268,317.408081 
	C234.688797,314.333099 237.799011,314.826019 238.683670,312.631287 
	C234.717148,313.649719 231.131851,315.727814 227.301773,314.884369 
	C226.280899,313.700012 226.598465,312.744751 227.009232,311.820984 
	C232.785797,298.829559 248.860764,292.471588 261.884827,297.868225 
	C264.696930,299.033478 265.759979,300.797974 265.248230,303.648621 
	C264.161865,309.700165 261.336456,314.558502 255.313812,317.600983 
z"/>
<path fill="#000000" opacity="1.000000" stroke="none" 
	d="
M623.692871,279.982117 
	C623.999023,277.222076 624.167419,274.892273 624.616943,272.618103 
	C625.597168,267.659088 628.383179,265.363678 632.762939,265.700897 
	C637.026428,266.029144 640.220398,269.322784 640.124451,274.215759 
	C639.984497,281.352753 639.340576,288.480560 638.876709,295.610016 
	C638.758118,297.431519 638.508240,299.244476 638.319519,301.061432 
	C637.799500,306.065887 634.276489,309.440063 629.912720,309.112610 
	C625.141907,308.754608 621.674194,304.392792 622.102905,299.295197 
	C622.631470,293.009521 623.156250,286.723450 623.692871,279.982117 
z"/>
</svg>