<svg version="1.1" id="Layer_1" xmlns="http://www.w3.org/2000/svg"
    xmlns:xlink="http://www.w3.org/1999/xlink" x="0px" y="0px"
    width="100%" viewBox="0 0 1024 896" enable-background="new 0 0 1024 896" xml:space="preserve">
     <rect width="100%" height="100%" fill="#FFFFFF" rx="40" />
<path fill="#000000" opacity="1.000000" stroke="none" 
	d="
M551.000000,770.291687 
	C499.842621,770.292969 449.185272,770.307251 398.527893,770.290039 
	C367.260345,770.279480 344.473328,748.100403 343.665833,716.948730 
	C343.440948,708.274231 343.387329,707.840820 334.490570,708.304016 
	C307.681000,709.700073 286.144806,692.212708 280.317993,669.193787 
	C278.873291,663.486511 278.643066,657.688599 278.487671,651.863525 
	C278.381927,647.898926 276.850342,645.822693 272.362457,646.169373 
	C268.070099,646.500854 263.646729,646.503906 259.402100,645.856689 
	C236.195633,642.318420 223.119873,623.056091 226.948715,599.308289 
	C232.767838,563.216248 238.148468,527.053650 243.775513,490.930389 
	C247.944733,464.165863 252.269791,437.425568 256.416260,410.657562 
	C261.249969,379.452698 265.920197,348.222504 270.744293,317.016113 
	C275.237854,287.947693 279.853455,258.898224 284.382263,229.835220 
	C285.175354,224.745392 285.628906,219.598450 286.540283,214.532028 
	C290.628418,191.805954 310.355225,174.568039 333.265656,173.918579 
	C344.421692,173.602325 355.595306,173.951431 366.756653,173.755020 
	C370.830048,173.683350 371.966736,175.545135 371.918701,179.193558 
	C371.817810,186.857254 371.808105,194.524536 371.916168,202.188156 
	C372.197205,222.117035 385.615234,236.228958 406.087585,238.235794 
	C423.107483,239.904205 440.338165,226.779770 443.167969,208.653656 
	C444.591583,199.534866 443.620117,190.039581 443.698669,180.714264 
	C443.756195,173.884644 443.732178,173.862488 450.750641,173.860275 
	C500.908051,173.844421 551.065674,173.897629 601.222595,173.734924 
	C606.113037,173.719070 607.431702,175.350296 607.451050,180.060059 
	C607.492004,190.024277 606.213257,200.072327 608.322998,209.951935 
	C612.291870,228.538086 629.190186,239.953949 649.205139,237.745499 
	C665.882629,235.905319 679.624939,219.907898 679.670105,202.262955 
	C679.690552,194.264481 679.739746,186.265366 679.656494,178.267776 
	C679.626770,175.415100 680.592102,173.829697 683.643311,173.895157 
	C697.287292,174.187881 710.981445,172.819077 724.572815,174.644577 
	C746.590332,177.601868 764.195923,196.032684 766.253357,218.123444 
	C766.512024,220.901031 767.613403,222.019241 770.210144,222.947433 
	C787.867310,229.258957 799.040161,241.571548 803.316833,259.889557 
	C804.106262,263.270813 805.487061,265.187805 809.029053,266.430023 
	C829.852478,273.733398 842.199646,291.849548 842.214478,314.947937 
	C842.263306,391.100586 842.223999,467.253326 842.218750,543.406006 
	C842.214783,600.895447 842.248596,658.384949 842.189636,715.874329 
	C842.164001,740.869141 827.338074,761.225769 804.232117,768.200806 
	C798.778564,769.847107 793.161682,770.326172 787.454407,770.323059 
	C708.802917,770.279907 630.151489,770.292542 551.000000,770.291687 
M400.499908,609.625732 
	C454.655823,609.617920 508.811737,609.615967 562.967651,609.595459 
	C570.603516,609.592529 572.226257,608.370056 573.820984,600.821045 
	C577.504883,583.382019 578.788818,565.617737 580.578186,547.936462 
	C582.868713,525.303162 597.283264,508.065399 619.294739,502.407013 
	C623.829163,501.241425 628.502625,501.018219 633.164978,500.971680 
	C647.161438,500.831970 661.160156,500.847382 675.154541,500.601471 
	C684.311951,500.440491 687.416443,497.753052 688.595459,489.860352 
	C691.001770,473.751984 693.400085,457.642090 695.899780,441.548065 
	C703.271118,394.089020 710.646057,346.630402 718.169250,299.195343 
	C718.816956,295.111450 717.357361,294.172577 713.768982,294.199127 
	C702.438538,294.283020 691.107056,294.233887 679.776001,294.233276 
	C559.633179,294.226685 439.490356,294.245514 319.347656,294.123016 
	C314.239502,294.117828 311.660370,294.924622 310.905884,300.842377 
	C308.698853,318.153168 305.702667,335.363586 303.001312,352.611084 
	C297.470306,387.924500 291.904205,423.232422 286.399872,458.549988 
	C279.590454,502.241302 272.877869,545.947754 266.018555,589.631165 
	C263.824951,603.601135 268.809601,609.657776 283.023041,609.657471 
	C321.848663,609.656616 360.674255,609.636841 400.499908,609.625732 
M580.500000,671.062805 
	C614.666443,671.062134 648.832947,671.065369 682.999390,671.058594 
	C694.165894,671.056396 705.334473,671.156006 716.498291,670.973511 
	C726.327332,670.812927 732.437439,665.451416 733.864136,655.799988 
	C734.690002,650.212524 735.135315,644.564026 735.618896,638.931519 
	C737.724976,614.402222 739.705444,589.861877 741.876343,565.338379 
	C744.722351,533.189270 747.776917,501.058594 750.607849,468.908234 
	C753.468445,436.421204 756.086182,403.912781 758.955688,371.426575 
	C762.072815,336.135986 765.489075,300.871246 768.457825,265.568573 
	C769.050415,258.521484 768.007019,251.391449 764.991943,244.373795 
	C763.765991,246.148468 763.576050,247.740128 763.334839,249.335770 
	C759.582397,274.165680 755.863586,299.000793 752.040405,323.819794 
	C743.125610,381.691986 734.157043,439.555878 725.215271,497.423920 
	C723.834229,506.361542 722.269897,515.104675 715.280396,521.883118 
	C676.041504,559.937134 636.826111,598.016296 597.784302,636.272156 
	C590.500244,643.409607 582.294739,646.392578 572.190796,646.372253 
	C489.191833,646.205688 406.192383,646.266296 323.193085,646.261292 
	C321.526886,646.261169 319.858826,646.259155 318.194977,646.333008 
	C316.389282,646.413147 315.663177,647.464722 315.431824,649.225037 
	C313.755676,661.979370 321.631744,671.081299 334.502197,671.081970 
	C416.168121,671.086121 497.834076,671.071472 580.500000,671.062805 
M804.862000,548.500000 
	C804.883362,486.182220 804.913025,423.864441 804.920227,361.546661 
	C804.922058,345.717316 804.875793,329.887848 804.792419,314.058746 
	C804.778381,311.400513 804.980164,308.581177 802.426636,305.993286 
	C801.995178,307.705597 801.558594,308.803925 801.458191,309.932190 
	C800.056702,325.675018 798.699829,341.421814 797.334778,357.167908 
	C795.237305,381.362396 793.156494,405.558289 791.041443,429.751251 
	C788.824707,455.106781 786.530518,480.455658 784.355225,505.814728 
	C782.549438,526.865906 780.923218,547.932495 779.115540,568.983582 
	C776.866882,595.169556 774.649780,621.359619 772.123779,647.519409 
	C771.343384,655.601501 771.631348,663.838745 769.031982,671.723083 
	C761.796143,693.670532 741.948792,708.245422 718.797791,708.251038 
	C609.490723,708.277527 500.183685,708.250305 390.876648,708.242798 
	C388.710510,708.242615 386.539062,708.348145 384.379578,708.230225 
	C381.416260,708.068359 380.317139,709.246399 380.250946,712.305359 
	C379.963562,725.580017 387.628052,733.636719 401.068207,733.577820 
	C436.721130,733.421631 472.374298,733.431885 508.027679,733.243408 
	C586.173401,732.830139 664.322754,733.092834 742.470581,733.091370 
	C755.800354,733.091125 769.140930,732.823486 782.457031,733.265991 
	C798.268433,733.791443 804.835205,727.822083 804.836548,711.960876 
	C804.841309,657.807251 804.852295,603.653625 804.862000,548.500000 
z"/>
<path fill="#000000" opacity="1.000000" stroke="none" 
	d="
M618.780029,169.000031 
	C619.106445,161.027161 617.934448,153.488129 619.434570,146.077789 
	C622.096436,132.928345 632.945374,125.435570 647.198425,126.692886 
	C658.257690,127.668465 667.929626,137.948044 668.134094,149.856384 
	C668.437317,167.508453 668.459106,185.174805 668.113525,202.825531 
	C667.846252,216.476303 656.991150,226.760437 643.633728,226.847458 
	C630.035278,226.936066 619.233459,216.280869 618.866638,201.981781 
	C618.589050,191.160904 618.791260,180.327728 618.780029,169.000031 
z"/>
<path fill="#000000" opacity="1.000000" stroke="none" 
	d="
M382.910400,189.995972 
	C382.904449,176.670898 382.731506,163.842117 382.940643,151.019592 
	C383.142212,138.661011 392.644928,127.868629 403.902710,126.707680 
	C417.832672,125.271172 428.514343,132.425858 431.696930,145.467194 
	C432.201904,147.536469 432.282257,149.747833 432.288300,151.894272 
	C432.334290,168.218216 432.335327,184.542404 432.306000,200.866425 
	C432.279297,215.716003 422.371429,226.360428 408.277161,226.753006 
	C394.222626,227.144485 383.358948,216.348679 382.924561,201.488312 
	C382.817505,197.826889 382.909821,194.159607 382.910400,189.995972 
z"/>
<path fill="#000000" opacity="1.000000" stroke="none" 
	d="
M436.306000,443.694153 
	C443.718933,451.149872 451.001434,458.242645 457.982391,465.620728 
	C461.041107,468.853424 463.059601,468.497345 466.059204,465.472595 
	C489.166260,442.171936 512.420898,419.017578 535.629639,395.817810 
	C553.419373,378.034973 571.274292,360.316559 588.936218,342.407745 
	C591.994629,339.306641 593.761841,339.174652 596.893738,342.420441 
	C607.300476,353.205627 618.010803,363.701294 628.735962,374.173553 
	C631.556335,376.927368 631.973328,378.841064 628.895752,381.911713 
	C574.062866,436.622681 519.318542,491.422516 464.629395,546.277222 
	C461.985046,548.929565 460.309326,548.879089 457.730896,546.249390 
	C428.110382,516.039917 398.433289,485.885559 368.659882,455.826874 
	C365.738220,452.877258 365.801544,451.028931 368.749603,448.168457 
	C379.747070,437.497864 390.580292,426.655121 401.329834,415.733978 
	C404.033875,412.986786 405.883148,412.908661 408.625305,415.754547 
	C417.639252,425.109375 426.892029,434.234070 436.306000,443.694153 
z"/>
</svg>
